<svg xmlns="http://www.w3.org/2000/svg" viewBox="0 0 330.01 330.01">
  <path d="M280.05 22.3c14.9 14.08 23.1 32.8 23.1 52.71 0 19.91-8.2 38.63-23.1 52.71L155.71 245.23c-18.45 17.44-48.47 17.44-66.93 0-18.45-17.44-18.45-45.81 0-63.25l81.88-77.38a16.43 16.43 0 0122.31 0 14.34 14.34 0 010 21.08l-81.88 77.38a14.35 14.35 0 000 21.09 16.45 16.45 0 0022.31 0l124.34-117.51c8.94-8.45 13.86-19.68 13.86-31.63s-4.92-23.18-13.86-31.63c-18.45-17.44-48.48-17.44-66.93 0L55.31 171.43c-30.75 29.07-30.74 76.36 0 105.43 14.9 14.08 34.71 21.83 55.78 21.83s40.88-7.75 55.78-21.83l135.5-128.05a16.43 16.43 0 0122.3 0 14.34 14.34 0 010 21.08L189.18 297.94c-20.86 19.71-48.59 30.57-78.09 30.57s-57.23-10.86-78.08-30.57C11.48 277.6.7 250.87.7 224.14c0-26.72 10.77-53.45 32.3-73.8L168.5 22.3c30.75-29.07 80.79-29.07 111.54 0z"/>
</svg>
