<svg fill="none" xmlns="http://www.w3.org/2000/svg" viewBox="0 0 100 100"><path d="M23.61 30.407c-.278 0-.557-.025-.833-.078-1.868-.354-3.367-1.874-3.73-3.781a1.557 1.557 0 013.06-.58c.124.66.627 1.184 1.25 1.302.625.12 1.232-.206 1.507-.59.42-.583.246-1.624-.01-2.177-.506-1.09-2.093-1.282-4.64-1.506-2.842-.25-6.377-.56-9.057-3.163-3.46-3.36-4.375-9.339-2.086-13.61 1.72-3.21 5.036-5.35 8.448-5.456 2.876-.09 6.435 1.102 7.461 3.93.592 1.63.45 4.035-1.262 5.461-1.636 1.364-3.654 1.011-4.234.87a1.556 1.556 0 11.733-3.024c.039.009.955.224 1.508-.237.56-.467.53-1.455.33-2.009-.495-1.361-2.94-1.929-4.439-1.88-2.639.081-4.816 1.975-5.801 3.814-1.613 3.009-.921 7.546 1.511 9.908 1.885 1.832 4.566 2.068 7.16 2.295 2.901.255 5.9.518 7.19 3.295.64 1.376.949 3.592-.284 5.307-.86 1.198-2.31 1.909-3.781 1.909zM61.24 30.407c-1.47 0-2.92-.711-3.78-1.909-1.233-1.715-.924-3.93-.286-5.307 1.29-2.777 4.29-3.04 7.193-3.295 2.592-.227 5.273-.463 7.16-2.295 2.43-2.362 3.123-6.9 1.51-9.908-.986-1.839-3.162-3.733-5.802-3.814-1.495-.048-3.943.52-4.437 1.88-.2.554-.231 1.542.329 2.01.553.46 1.47.245 1.507.236a1.556 1.556 0 11.734 3.025c-.58.14-2.598.493-4.234-.87-1.712-1.427-1.854-3.831-1.262-5.463 1.026-2.827 4.584-4.019 7.46-3.93 3.413.107 6.73 2.248 8.448 5.456 2.29 4.272 1.374 10.25-2.085 13.611-2.68 2.603-6.216 2.914-9.057 3.163-2.547.224-4.134.416-4.64 1.505-.256.554-.43 1.595-.01 2.179.275.383.88.709 1.506.59.623-.119 1.126-.642 1.252-1.304a1.556 1.556 0 113.058.581c-.362 1.907-1.86 3.427-3.73 3.781a4.523 4.523 0 01-.833.078z" fill="#FF7E09"/><path d="M60.047 0h-35.15c-.603 0-1.092.489-1.092 1.092v9.576c0 12.502 6.307 23.529 15.912 30.076a4.553 4.553 0 005.078.034c9.847-6.509 16.344-17.68 16.344-30.367v-9.32C61.14.49 60.65 0 60.047 0z" fill="#FDD559"/><path d="M60.046 0h-9.12c.602 0 1.09.489 1.09 1.092v9.32c0 11.774-5.596 22.237-14.272 28.886.641.502 1.297.987 1.972 1.446a4.552 4.552 0 005.077.034c9.848-6.509 16.344-17.68 16.344-30.367v-9.32C61.137.49 60.65 0 60.047 0z" fill="#FDC259"/><path d="M39.29 40.365h6.364v16.553h-6.365V40.365z" fill="#FF7E09"/><path d="M46.63 42.319h-8.316a5.389 5.389 0 01-5.388-5.389c0-.47.381-.851.851-.851h17.39c.47 0 .851.381.851.851a5.39 5.39 0 01-5.388 5.389z" fill="#FDB659"/><path d="M51.166 36.079h-5.967c.47 0 .851.381.851.851a5.388 5.388 0 01-5.388 5.389h5.966a5.388 5.388 0 005.388-5.389c0-.47-.38-.851-.85-.851z" fill="#FD9E28"/><path d="M52.018 61.606H32.926v-.43a6.21 6.21 0 016.21-6.21h6.671a6.21 6.21 0 016.21 6.21v.43z" fill="#FDB659"/><path d="M45.806 54.965h-5.677a6.21 6.21 0 016.21 6.21v.43h5.677v-.43a6.21 6.21 0 00-6.21-6.21z" fill="#FD9E28"/><path d="M55.96 72.517H28.983v-7.116c0-2.096 1.7-3.795 3.796-3.795h19.386c2.097 0 3.796 1.7 3.796 3.795v7.116z" fill="#38627C"/><path d="M52.163 61.606H46.63c2.096 0 3.796 1.699 3.796 3.795v5.162h5.534v-5.162c0-2.096-1.7-3.795-3.796-3.795z" fill="#2F5066"/><path d="M68.368 90.602a3.102 3.102 0 01-2.2-.912l-4.428-5.612a6.883 6.883 0 00-5.403-2.62H29.319a5.896 5.896 0 01-4.734-2.38L12.69 63.072a3.112 3.112 0 01.11-4.506c1.239-1.127 3.17-1.018 4.355.167l11.832 11.831H55.59c4.167 0 8.167 1.635 11.142 4.554l3.836 3.764a3.112 3.112 0 010 4.402c-.607.608-1.404 7.319-2.2 7.319z" fill="#FEDFC5"/><path d="M28.485 70.563h.504L17.16 58.736c-1.18-1.18-3.198-1.273-4.41-.125-.305.29-.538.627-.7.988l7.097 7.097a13.204 13.204 0 009.337 3.867zM70.57 78.88l-3.837-3.763a15.907 15.907 0 00-11.142-4.554H49.62c4.167 0 8.167 1.635 11.142 4.554l3.836 3.764a3.112 3.112 0 010 4.402c-.268.269-.574 1.73-.9 3.276l2.47 3.131a3.103 3.103 0 002.202.912c.797 0 1.593-6.71 2.201-7.319a3.113 3.113 0 000-4.402z" fill="#FECBAA"/><path d="M60.057 86.063L72.4 76.51a1.14 1.14 0 011.599.203l5.655 7.306-14.145 10.948-5.654-7.305a1.14 1.14 0 01.203-1.6z" fill="#83D9FF"/><path d="M73.998 76.713a1.14 1.14 0 00-1.598-.203l-2.603 2.014a6.949 6.949 0 01-1.24 9.747l-5.147 3.983 2.099 2.713 14.144-10.948-5.655-7.306z" fill="#5FC9ED"/><path d="M79.654 84.019L65.51 94.967l3.342 4.319c.35.45.888.714 1.457.714h21.4c.42 0 .652-.488.385-.813l-12.44-15.168z" fill="#4F7693"/></svg>