<svg xmlns="http://www.w3.org/2000/svg" viewBox="0 0 438.5 438.5"><path d="M349.5 52.5a52.9 52.9 0 00-38.9-16 52.9 52.9 0 00-38.8 16 52.9 52.9 0 00-16 38.9 53.7 53.7 0 0027.4 47.4c0 9.9-.8 18.6-2.4 26a58.9 58.9 0 01-8 20 62.4 62.4 0 01-28.4 25.8 259.3 259.3 0 01-45.1 17.2c-19 6-33.7 11.4-44 16.3V102.2a53.7 53.7 0 0027.4-47.4c0-15.2-5.3-28.2-16-38.8A52.9 52.9 0 00128 0a52.9 52.9 0 00-38.8 16 52.9 52.9 0 00-16 38.8 53.7 53.7 0 0027.4 47.4v234.1A53.7 53.7 0 0073 383.7c0 15.2 5.3 28.2 16 38.8s23.6 16 38.8 16c15.2 0 28.2-5.3 38.8-16a52.9 52.9 0 0016-38.8 53.7 53.7 0 00-27.4-47.4V329c0-13.1 4-22.6 11.9-28.5 7.9-6 24-12.7 48.4-20.3 25.7-8.2 45-16 58-23.2 42.5-24.1 64-63.5 64.4-118.1 8.4-4.8 15-11.4 20-19.9 5-8.5 7.4-17.6 7.4-27.5 0-15.3-5.3-28.2-16-38.9zM147.3 403.1c-5.3 5.4-11.8 8-19.4 8-7.6 0-14-2.6-19.4-8-5.3-5.3-8-11.8-8-19.4 0-7.6 2.7-14 8-19.4 5.3-5.3 11.8-8 19.4-8 7.6 0 14 2.7 19.4 8 5.4 5.3 8 11.8 8 19.4 0 7.6-2.6 14.1-8 19.4zm0-328.9c-5.3 5.4-11.8 8-19.4 8-7.6 0-14-2.6-19.4-8-5.3-5.3-8-11.8-8-19.4 0-7.6 2.7-14 8-19.4 5.3-5.3 11.8-8 19.4-8 7.6 0 14 2.7 19.4 8 5.4 5.3 8 11.8 8 19.4 0 7.6-2.6 14.1-8 19.4zM330 110.8c-5.3 5.3-11.8 8-19.4 8-7.6 0-14-2.7-19.4-8-5.3-5.3-8-11.8-8-19.4 0-7.6 2.7-14.1 8-19.4s11.8-8 19.4-8c7.6 0 14.1 2.6 19.4 8 5.4 5.3 8 11.7 8 19.4 0 7.6-2.6 14-8 19.4z"/></svg>
