<svg fill="none" xmlns="http://www.w3.org/2000/svg" viewBox="0 0 100 100">
  <path d="M49.72 93.48a1.51 1.51 0 01-.042-3.017 1.51 1.51 0 01.13 3.015l-.044.001-.044.001zm-6.068-.227c-.06 0-.118-.003-.178-.01l-.004-.001a1.505 1.505 0 01-1.347-1.652 1.513 1.513 0 011.657-1.35l.046.004a1.51 1.51 0 01-.174 3.009zm12.123-.466a1.508 1.508 0 01-.29-2.99l.029-.005a1.51 1.51 0 01.566 2.965l-.011.002c-.1.02-.197.028-.294.028zm-18.11-.684c-.132 0-.265-.018-.399-.053l-.008-.003a1.51 1.51 0 01.772-2.918l.031.008a1.509 1.509 0 01-.396 2.966zm23.991-.928a1.51 1.51 0 01-.517-2.927l.026-.009a1.51 1.51 0 011.02 2.84l-.013.005c-.171.062-.345.091-.516.091zm-29.74-1.13c-.205 0-.415-.043-.615-.134l-.02-.01a1.509 1.509 0 111.245-2.748c.76.343 1.106 1.24.763 2-.252.56-.799.891-1.372.891zm35.299-1.364a1.508 1.508 0 01-.712-2.841 1.51 1.51 0 011.455 2.644l-.034.02c-.227.12-.47.177-.71.177zm13.706-13.49l.01.007-.16-.114.15.107zm-69.663-6.578c-.595 0-1.16-.356-1.399-.942l-.004-.01a1.509 1.509 0 012.79-1.153l.01.027a1.509 1.509 0 01-1.396 2.078zm74.909-2.896a1.51 1.51 0 01-1.437-1.971 1.513 1.513 0 011.88-1 1.508 1.508 0 011.007 1.879l-.019.06a1.51 1.51 0 01-1.431 1.032zM9.413 62.803a1.51 1.51 0 01-1.467-1.159l-.005-.02a1.51 1.51 0 012.936-.701l.005.02a1.51 1.51 0 01-1.47 1.86zm78.142-3.022a1.51 1.51 0 01-1.49-1.755 1.512 1.512 0 011.712-1.265 1.507 1.507 0 011.272 1.71l-.01.063a1.51 1.51 0 01-1.484 1.247zM8.48 56.776c-.774 0-1.432-.59-1.501-1.376l-.005-.062a1.51 1.51 0 013.012-.194 1.51 1.51 0 01-1.506 1.632zm79.536-3.073c-.834 0-1.51-.676-1.51-1.51v-.02-.03-.06a1.51 1.51 0 113.02 0v.02c0 .01 0 .021-.002.031l.001.04v.02c0 .833-.675 1.509-1.509 1.509zm-79.54-3.02a1.508 1.508 0 01-1.505-1.636 1.503 1.503 0 011.594-1.4 1.509 1.509 0 011.418 1.595l-.005.062a1.509 1.509 0 01-1.501 1.379zm79.066-3.148a1.509 1.509 0 01-1.484-1.247l-.01-.063a1.51 1.51 0 012.985-.443 1.509 1.509 0 01-1.49 1.753zm.254-1.567l-.255.037.255-.037zm-78.404-1.31a1.51 1.51 0 01-1.47-1.857 1.51 1.51 0 012.95.636l-.014.061a1.509 1.509 0 01-1.466 1.16zm76.766-3.05a1.522 1.522 0 01-1.44-1.04l-.016-.052a1.508 1.508 0 112.885-.887v.002a1.501 1.501 0 01-.957 1.9 1.47 1.47 0 01-.472.078zm-74.936-2.77a1.51 1.51 0 01-1.398-2.077l.008-.018a1.51 1.51 0 112.796 1.135l-.008.019a1.51 1.51 0 01-1.398.941zm72.647-2.882c-.55 0-1.08-.302-1.35-.822l-.022-.044a1.509 1.509 0 112.71-1.332v.003c.383.74.09 1.645-.652 2.027a1.49 1.49 0 01-.686.168zM13.925 33.37a1.508 1.508 0 01-1.29-2.29 1.51 1.51 0 012.615 1.507l-.036.06c-.284.466-.78.723-1.29.723zm66.811-2.65c-.483 0-.958-.232-1.25-.662a1.502 1.502 0 01.356-2.099 1.516 1.516 0 012.11.358l.032.046a1.51 1.51 0 01-1.248 2.357zm-63.305-2.339a1.51 1.51 0 01-1.16-2.474l.013-.014a1.509 1.509 0 112.322 1.927l-.013.016c-.298.36-.728.545-1.162.545zm59.417-2.357c-.396 0-.792-.154-1.088-.463a1.51 1.51 0 01.02-2.137 1.507 1.507 0 012.132.02l.025.026a1.51 1.51 0 01-1.089 2.554zm-55.193-2.04a1.509 1.509 0 01-1-2.639l.005-.006a1.51 1.51 0 012.131.116c.555.62.507 1.571-.112 2.128l-.024.022a1.505 1.505 0 01-1 .379zm50.636-2.01c-.31 0-.62-.095-.89-.292l-.051-.04a1.51 1.51 0 011.85-2.384 1.51 1.51 0 01-.909 2.715zm.136-1.716l-.15.194.15-.194zm-45.932.02a1.51 1.51 0 01-.816-2.78 1.51 1.51 0 011.679 2.51l-.053.034a1.5 1.5 0 01-.81.237zm40.673-1.617c-.238 0-.48-.057-.705-.177l-.036-.02a1.51 1.51 0 011.454-2.644l.005.002a1.514 1.514 0 01.61 2.044 1.508 1.508 0 01-1.328.794zm-35.325-1.306a1.51 1.51 0 01-.625-2.884l.036-.015a1.509 1.509 0 111.209 2.765c-.202.09-.413.134-.62.134z" fill="#A7C7D3"/>
  <path d="M59.866 81.47L37.145 58.749a3.638 3.638 0 115.145-5.145l-5.85-5.85a3.631 3.631 0 01-1.022-3.156 3.615 3.615 0 011.017-1.994 3.638 3.638 0 014.803-.296l-2.226-2.226a3.638 3.638 0 01-1.02-3.169 3.602 3.602 0 011.014-1.982 3.606 3.606 0 011.996-1.018 3.636 3.636 0 013.156 1.022l2.55 2.55a3.639 3.639 0 01-1.022-3.156 3.6 3.6 0 011.018-1.993 3.642 3.642 0 015.149.004l14.766 14.766.041-.059a6.618 6.618 0 012.571-1.597 6.666 6.666 0 016.847 1.605l6.885 6.885a7.063 7.063 0 012.069 4.985l.003 4.307a7.602 7.602 0 002.229 5.37l1.535 1.535-17.56 17.56-1.963-1.962a7.607 7.607 0 00-4.88-2.21 7.06 7.06 0 01-4.53-2.055z" fill="#FECBAA"/>
  <path d="M70.098 88.838L90.03 68.906a1.681 1.681 0 012.378 0l7.099 7.098a1.682 1.682 0 010 2.378L79.575 98.315a1.681 1.681 0 01-2.378 0l-7.1-7.099a1.682 1.682 0 010-2.378z" fill="#FFBE54"/>
  <path d="M90.56 77.853a1.508 1.508 0 102.13-2.13 1.508 1.508 0 10-2.13 2.13z" fill="#CF880E"/>
  <path d="M71.703 52.19l-5.084-5.084.041-.059a6.619 6.619 0 012.571-1.597l4.606 4.606a1.51 1.51 0 01-2.134 2.134z" fill="#FFAE85"/>
  <path d="M40.132 81.472l22.721-22.721a3.64 3.64 0 00.005-5.15 3.607 3.607 0 00-1.994-1.017 3.638 3.638 0 00-3.156 1.022l5.851-5.85a3.632 3.632 0 001.022-3.156 3.613 3.613 0 00-1.018-1.994 3.638 3.638 0 00-4.803-.296l2.226-2.227a3.635 3.635 0 001.02-3.168 3.6 3.6 0 00-1.014-1.982 3.61 3.61 0 00-1.996-1.017 3.634 3.634 0 00-3.156 1.021l-2.55 2.55a3.64 3.64 0 00.004-5.15 3.642 3.642 0 00-5.149.005L33.38 47.108l-.04-.058a6.618 6.618 0 00-2.572-1.598 6.667 6.667 0 00-6.846 1.605l-6.885 6.885a7.063 7.063 0 00-2.07 4.985l-.004 4.307a7.599 7.599 0 01-2.228 5.37L11.2 70.14 28.76 87.7l1.963-1.961a7.607 7.607 0 014.88-2.211 7.06 7.06 0 004.53-2.055z" fill="#FECBAA"/>
  <path d="M29.902 88.84L9.969 68.908a1.681 1.681 0 00-2.378 0L.493 76.006a1.681 1.681 0 000 2.378l19.931 19.933a1.682 1.682 0 002.38 0l7.098-7.098a1.682 1.682 0 000-2.38z" fill="#59D90B"/>
  <path d="M23.098 91.513a1.508 1.508 0 10-2.13-2.13 1.508 1.508 0 102.13 2.13z" fill="#04710F"/>
  <path d="M28.297 52.192l5.084-5.084-.042-.058a6.618 6.618 0 00-2.57-1.598l-4.607 4.605a1.51 1.51 0 002.135 2.135z" fill="#FFAE85"/>
  <path d="M64.531 27.019v32.133a3.639 3.639 0 01-5.767 2.953 3.637 3.637 0 01-1.51-2.953v8.274a3.63 3.63 0 01-1.508 2.953 3.61 3.61 0 01-2.129.69 3.636 3.636 0 01-3.606-3.188v3.15a3.638 3.638 0 01-1.518 2.962 3.604 3.604 0 01-2.12.684 3.61 3.61 0 01-2.13-.692 3.637 3.637 0 01-1.51-2.954v-3.605a3.636 3.636 0 01-1.509 2.953 3.601 3.601 0 01-2.129.69 3.642 3.642 0 01-3.638-3.643V46.543l-.07.012a6.627 6.627 0 01-2.948-.688 6.668 6.668 0 01-3.707-5.976v-9.737c0-1.871.743-3.664 2.063-4.988l3.042-3.048a7.601 7.601 0 002.222-5.373v-2.171h24.834v2.775a7.61 7.61 0 001.887 5.014 7.06 7.06 0 011.751 4.656z" fill="#FEDFC5"/>
  <path d="M62.858 53.602a3.612 3.612 0 00-1.994-1.018 3.636 3.636 0 00-3.156 1.022l5.851-5.85a3.632 3.632 0 001.022-3.156 3.611 3.611 0 00-1.017-1.994 3.64 3.64 0 00-4.803-.296l2.226-2.227a3.637 3.637 0 001.02-3.168 3.606 3.606 0 00-1.014-1.982 3.608 3.608 0 00-1.996-1.017 3.638 3.638 0 00-3.157 1.021l-2.55 2.55a3.64 3.64 0 00.005-5.15 3.643 3.643 0 00-5.15.005L33.38 47.108l-.04-.058a6.618 6.618 0 00-2.572-1.598 6.688 6.688 0 00-3.454-.213 9.689 9.689 0 003.787 3.333c.436.216.883.397 1.34.544v18.31c0 3.673 2.986 6.662 6.655 6.662.442 0 .877-.043 1.3-.127a6.638 6.638 0 002.071 2.463 6.616 6.616 0 001.79.925l18.597-18.598a3.64 3.64 0 00.005-5.15z" fill="#FFAE85"/>
  <path d="M67.549 59.151v-12.85c-.312.218-.61.468-.889.746l-.041.06L51.853 32.34a3.642 3.642 0 00-5.15-.004 3.6 3.6 0 00-1.017 1.993 3.64 3.64 0 001.022 3.156l-2.55-2.55a3.636 3.636 0 00-3.156-1.022 3.606 3.606 0 00-1.996 1.018 3.603 3.603 0 00-1.015 1.982 3.638 3.638 0 001.02 3.169l2.227 2.226a3.638 3.638 0 00-4.803.296 3.615 3.615 0 00-1.064 2.576c0 .93.357 1.862 1.068 2.573l5.851 5.851a3.636 3.636 0 00-3.155-1.021A3.61 3.61 0 0037.14 53.6a3.64 3.64 0 00.004 5.15l15.221 15.22c.41.078.827.118 1.25.118 1.412 0 2.76-.438 3.896-1.26a6.72 6.72 0 00.813-.693 6.615 6.615 0 001.948-4.71v-1.64c.205.02.412.028.62.028 3.67 0 6.656-2.988 6.656-6.662z" fill="#FFAE85"/>
  <path d="M64.531 27.019v32.133a3.639 3.639 0 01-3.638 3.643c-.054 0-.112 0-.17-.004a3.6 3.6 0 01-1.954-.684c-.003 0-.003-.002-.005-.002a3.637 3.637 0 01-1.51-2.953v8.274a3.63 3.63 0 01-1.508 2.953 3.61 3.61 0 01-2.129.69 3.636 3.636 0 01-3.606-3.188v3.15a3.638 3.638 0 01-1.518 2.962 3.604 3.604 0 01-2.12.684 3.61 3.61 0 01-2.13-.692 3.637 3.637 0 01-1.51-2.954v-3.605a3.636 3.636 0 01-1.509 2.953 3.601 3.601 0 01-2.129.69 3.642 3.642 0 01-3.638-3.643V46.543l-.07.012a6.627 6.627 0 01-2.948-.688 6.668 6.668 0 01-3.707-5.976v-9.737c0-1.871.743-3.664 2.063-4.988l3.042-3.048a7.578 7.578 0 001.882-3.128 7.57 7.57 0 00.34-2.245v-2.171h24.834v2.775c0 .621.067 1.277.24 1.876a7.567 7.567 0 001.647 3.138 7.116 7.116 0 011.751 4.656z" fill="#FEDFC5"/>
  <path d="M64.531 27.019v32.133a3.639 3.639 0 01-3.638 3.643c-.054 0-.112 0-.17-.004a3.6 3.6 0 01-1.954-.684l.062-30.963c0-.187-.043-.483-.121-.86-1.389-6.762-7.097-11.294-14-11.294h-8.991c.226-.724.34-1.487.34-2.245v-2.171h24.834v2.775c0 .621.067 1.277.24 1.876a7.567 7.567 0 001.647 3.138 7.116 7.116 0 011.751 4.656z" fill="#FECBAA"/>
  <path d="M62.507 14.575H34.318a1.682 1.682 0 01-1.681-1.682V2.853c0-.928.753-1.681 1.681-1.681h28.19c.928 0 1.68.753 1.68 1.681v10.04c0 .928-.752 1.681-1.68 1.681z" fill="#2790CF"/>
  <path d="M40.603 7.874a1.508 1.508 0 10-3.013 0 1.508 1.508 0 103.013 0z" fill="#0D013E"/>
  <path d="M58.765 42.336v19.769a3.635 3.635 0 01-1.51-2.954v8.274a3.629 3.629 0 01-1.509 2.954V42.335a1.51 1.51 0 013.019 0zM51.51 42.336v28.059a3.637 3.637 0 01-1.499-2.513v3.15a3.636 3.636 0 01-1.519 2.96V42.336a1.51 1.51 0 013.018 0zM44.243 42.336v31.648a3.636 3.636 0 01-1.51-2.953v-3.606a3.638 3.638 0 01-1.508 2.954V42.335a1.51 1.51 0 013.018 0zM35.458 39.353v7.19l-.071.012a6.62 6.62 0 01-2.947-.688v-6.514a1.51 1.51 0 013.018 0z" fill="#FECBAA"/>
</svg>
