<svg viewBox="0 0 19 27" xmlns="http://www.w3.org/2000/svg">
<path d="M9.45024 0.71875C4.23942 0.71875 0 4.95817 0 10.169C0 16.7185 9.45954 27.9062 9.45954 27.9062C9.45954 27.9062 18.9005 16.3964 18.9005 10.169C18.9005 4.95817 14.6612 0.71875 9.45024 0.71875ZM12.3016 12.936C11.5154 13.7221 10.4829 14.1152 9.45024 14.1152C8.41777 14.1152 7.38496 13.7221 6.59908 12.936C5.0268 11.3639 5.0268 8.8058 6.59908 7.23353C7.3604 6.47187 8.37313 6.05237 9.45024 6.05237C10.5274 6.05237 11.5399 6.47203 12.3016 7.23353C13.8739 8.8058 13.8739 11.3639 12.3016 12.936Z"/>
</svg>
