<svg fill="none" xmlns="http://www.w3.org/2000/svg" viewBox="0 0 100 100">
  <path d="M63.4 82.92a1.5 1.5 0 01-.55-2.9 1.5 1.5 0 111.14 2.79h-.03c-.18.07-.37.1-.55.1zM34 81.68a1.5 1.5 0 01-.67-.17h-.01a1.5 1.5 0 011.34-2.7l.03.02a1.5 1.5 0 01-.68 2.85zm34.81-1.5a1.5 1.5 0 01-.78-2.78 1.5 1.5 0 011.6 2.55l-.03.02a1.5 1.5 0 01-.79.22zM28.85 78.5c-.32 0-.63-.1-.9-.3a1.5 1.5 0 01-.35-2.1 1.51 1.51 0 012.1-.35l.05.03a1.5 1.5 0 01-.9 2.72zm44.83-1.92a1.5 1.5 0 01-1-2.63l.02-.02a1.5 1.5 0 112 2.26l-.02.01a1.5 1.5 0 01-1 .38zM24.3 74.5c-.4 0-.8-.15-1.1-.46v-.01a1.5 1.5 0 012.17-2.09l.01.02a1.5 1.5 0 01-1.08 2.54zm53.58-2.29a1.5 1.5 0 01-1.18-2.44l.02-.02a1.5 1.5 0 112.34 1.9l-1.17-.95 1.17.95c-.3.37-.74.56-1.18.56zm-57.4-2.42a1.5 1.5 0 01-1.25-.67 1.5 1.5 0 01.38-2.09c.68-.47 1.62-.3 2.1.38l.02.04a1.5 1.5 0 01-1.25 2.34zm60.8-2.6a1.5 1.5 0 01-1.32-2.22l.02-.04a1.5 1.5 0 112.62 1.49l-1.3-.74 1.3.74c-.28.5-.8.77-1.32.77zM17.52 64.5a1.5 1.5 0 01-1.37-.89 1.5 1.5 0 012.73-1.26v.02a1.5 1.5 0 01-1.36 2.13zm66.25-26.72a1.5 1.5 0 01-1.42-1v-.02a1.5 1.5 0 012.83-1 1.5 1.5 0 01-1.4 2.02zm-66.29-2.72a1.5 1.5 0 01-1.38-2.12l.03-.04a1.5 1.5 0 012.73 1.27c-.25.56-.8.9-1.38.9zm63.79-2.8a1.51 1.51 0 01-.75-2.83 1.5 1.5 0 012.04.57l.02.03a1.5 1.5 0 01-1.31 2.24zm-60.83-2.5a1.5 1.5 0 01-1.25-2.34l.02-.03a1.5 1.5 0 012.48 1.7 1.5 1.5 0 01-1.25.67zm57.42-2.5a1.5 1.5 0 01-1.17-.56l-.01-.02a1.5 1.5 0 012.34-1.9v.02a1.5 1.5 0 01-1.16 2.45zm-53.62-2.2a1.5 1.5 0 01-1.1-2.54l.04-.05a1.5 1.5 0 112.15 2.1c-.3.32-.69.48-1.09.48zm49.42-2.18a1.5 1.5 0 01-1-.39 1.5 1.5 0 01-.16-2.11 1.5 1.5 0 012.13-.15l.04.03a1.5 1.5 0 01-1.01 2.62zm-44.87-1.85a1.5 1.5 0 01-.9-2.7l.01-.02a1.5 1.5 0 111.8 2.41l-.01.02c-.27.2-.59.3-.9.3zm40-1.75a1.5 1.5 0 11.77-2.8l.02.02a1.5 1.5 0 01-.8 2.78zm-34.85-1.43a1.5 1.5 0 01-.68-2.85l.01-.01a1.5 1.5 0 011.37 2.68l-.02.01a1.5 1.5 0 01-.68.17z" fill="#A7C7D3"/>
  <path d="M50.06 58.91a1.5 1.5 0 01-1.5-1.5v-5.55a1.5 1.5 0 113 0v5.55c0 .83-.67 1.5-1.5 1.5z" fill="#FFA000"/>
  <path d="M50.06 51.89a6.12 6.12 0 01-6.12-6.12v-7.08c0-.33.27-.6.6-.6h11.04c.33 0 .6.27.6.6v7.08a6.12 6.12 0 01-6.12 6.12z" fill="#FDB659"/>
  <path d="M55.58 38.1h-4.21c.33 0 .6.26.6.6v7.07a6.12 6.12 0 01-4.02 5.75 6.12 6.12 0 008.23-5.75v-7.08a.6.6 0 00-.6-.6z" fill="#FFA50A"/>
  <path d="M52.34 57.53h-4.56c-.4 0-.74.28-.82.67l-.8 3.85c-.04.13.06.26.2.26h7.4c.14 0 .24-.13.21-.26l-.81-3.85a.84.84 0 00-.82-.67z" fill="#2A5885"/>
  <path d="M64.9 14.83c0 4.12-1.68 7.85-4.4 10.53a14.78 14.78 0 01-20.82.03A14.83 14.83 0 1164.9 14.82z" fill="#83D9FF"/>
  <path d="M50.08 0c-1.03 0-2.04.1-3.01.3a14.83 14.83 0 017.42 25.06 14.8 14.8 0 01-7.42 3.98 14.86 14.86 0 0013.44-3.98A14.83 14.83 0 0050.08 0z" fill="#2790CF"/>
  <path d="M60.5 25.36a14.78 14.78 0 01-20.82.03c.2-.84.67-1.62 1.36-2.25a5.28 5.28 0 013.58-1.34h10.95c1.32 0 2.61.45 3.59 1.34a4.43 4.43 0 011.35 2.22z" fill="#5181B8"/>
  <path d="M59.16 23.14A5.06 5.06 0 0057.04 22a14.8 14.8 0 01-9.97 7.35c.48.1.97.18 1.46.23h.02c.23.03.45.04.68.05l.08.01.77.02c4.06 0 7.75-1.64 10.43-4.29-.2-.83-.68-1.6-1.35-2.22z" fill="#5181B8"/>
  <path d="M52.77 15.28L51.1 16.3c-.62.37-1.39.37-2 0l-1.68-1.02a1.93 1.93 0 01-.92-1.65V9.16c0-1.23 1-2.23 2.22-2.23h2.75c1.23 0 2.23 1 2.23 2.23v4.47c0 .67-.36 1.3-.93 1.65z" fill="#fff"/>
  <path d="M64.9 85.17c0 4.13-1.68 7.85-4.4 10.54a14.78 14.78 0 01-20.82.03A14.83 14.83 0 1164.9 85.17z" fill="#83D9FF"/>
  <path d="M50.08 70.35c-1.03 0-2.04.1-3.01.3a14.83 14.83 0 017.42 25.06 14.8 14.8 0 01-7.42 3.98 14.86 14.86 0 0013.44-3.98 14.83 14.83 0 00-10.43-25.36z" fill="#2790CF"/>
  <path d="M60.5 95.71a14.78 14.78 0 01-20.82.03c.2-.84.67-1.62 1.36-2.25a5.28 5.28 0 013.58-1.34h10.95c1.32 0 2.61.45 3.59 1.34a4.43 4.43 0 011.35 2.22z" fill="#5181B8"/>
  <path d="M59.16 93.49a5.07 5.07 0 00-2.12-1.15 14.8 14.8 0 01-9.97 7.35c.48.1.97.18 1.46.23h.02l.68.05.08.01.77.02c4.06 0 7.75-1.64 10.43-4.29-.2-.83-.68-1.6-1.35-2.22z" fill="#5181B8"/>
  <path d="M52.77 85.63l-1.67 1.02c-.62.37-1.39.37-2 0l-1.68-1.02a1.93 1.93 0 01-.92-1.65V79.5c0-1.23 1-2.23 2.22-2.23h2.75c1.23 0 2.23 1 2.23 2.23v4.47c0 .67-.36 1.3-.93 1.65z" fill="#fff"/>
  <path d="M29.85 50.13c0 4.13-1.69 7.85-4.4 10.54a14.78 14.78 0 01-20.83.03 14.83 14.83 0 1125.22-10.57z" fill="#83D9FF"/>
  <path d="M15.02 35.31c-1.03 0-2.04.1-3 .3a14.83 14.83 0 017.4 25.06 14.8 14.8 0 01-7.4 3.98 14.86 14.86 0 0013.43-3.98 14.83 14.83 0 00-10.43-25.36z" fill="#2790CF"/>
  <path d="M25.45 60.67a14.78 14.78 0 01-20.82.03c.19-.84.67-1.62 1.35-2.25a5.28 5.28 0 013.59-1.34H20.5c1.32 0 2.62.45 3.59 1.34a4.43 4.43 0 011.35 2.22z" fill="#5181B8"/>
  <path d="M24.1 58.45a5.07 5.07 0 00-2.12-1.15 14.8 14.8 0 01-9.97 7.35c.48.1.97.18 1.47.23h.01l.68.05.09.01.76.02c4.07 0 7.75-1.64 10.43-4.29-.2-.83-.68-1.6-1.35-2.22z" fill="#5181B8"/>
  <path d="M17.71 50.59l-1.67 1.02c-.61.37-1.39.37-2 0l-1.67-1.02a1.93 1.93 0 01-.93-1.65v-4.47c0-1.23 1-2.23 2.22-2.23h2.76c1.22 0 2.22 1 2.22 2.23v4.47c0 .67-.35 1.3-.93 1.65z" fill="#fff"/>
  <path d="M99.93 50.13c0 4.13-1.69 7.85-4.4 10.54a14.78 14.78 0 01-10.43 4.29c-4.05 0-7.72-1.63-10.4-4.26a14.83 14.83 0 1125.22-10.57z" fill="#83D9FF"/>
  <path d="M85.1 35.31c-1.03 0-2.04.1-3.01.3a14.83 14.83 0 017.42 25.06c-2 1.98-4.56 3.4-7.42 3.98a14.87 14.87 0 0013.44-3.98A14.83 14.83 0 0085.1 35.31z" fill="#2790CF"/>
  <path d="M95.53 60.67a14.78 14.78 0 01-20.82.03c.19-.84.66-1.62 1.35-2.25a5.28 5.28 0 013.59-1.34h10.94c1.32 0 2.62.45 3.59 1.34a4.43 4.43 0 011.35 2.22z" fill="#5181B8"/>
  <path d="M94.18 58.45a5.07 5.07 0 00-2.12-1.15 14.8 14.8 0 01-9.97 7.35c.48.1.97.18 1.47.23h.02l.67.05.09.01.76.02c4.07 0 7.75-1.64 10.43-4.29-.2-.83-.67-1.6-1.35-2.22z" fill="#5181B8"/>
  <path d="M87.8 50.59l-1.68 1.02c-.61.37-1.39.37-2 0l-1.67-1.02a1.93 1.93 0 01-.93-1.65v-4.47c0-1.23 1-2.23 2.22-2.23h2.75c1.23 0 2.23 1 2.23 2.23v4.47c0 .67-.35 1.3-.93 1.65z" fill="#fff"/>
</svg>
