<svg fill="none" xmlns="http://www.w3.org/2000/svg" viewBox="0 0 20 18">
  <path d="M19.824 5.513l-3.379-3.308a4.162 4.162 0 00-2.928-1.195h-.29a.586.586 0 00-.098-.065l-.885-.466a.586.586 0 00-.859.532h-2.77a.586.586 0 00-.859-.532l-.885.466a.59.59 0 00-.099.065h-.29a4.162 4.162 0 00-2.927 1.195L.176 5.513a.586.586 0 00-.023.814l2.21 2.425c.205.226.55.256.79.069L4.527 7.76l.139 9.252c.005.32.265.577.586.577h9.498c.32 0 .582-.257.586-.577l.14-9.252 1.371 1.061a.586.586 0 00.792-.069l2.21-2.425a.586.586 0 00-.024-.814zM7.464 1.957l.838-.441a.584.584 0 00.168-.134c.099.105.16.246.16.401 0 .752.614 1.364 1.37 1.364.756 0 1.37-.611 1.37-1.362 0-.156.062-.297.16-.402a.585.585 0 00.168.133l.839.441a2.543 2.543 0 01-5.073 0zm5.535 6.496a.586.586 0 01-.585.586h-1.33a.586.586 0 01-.585-.586V6.698c0-.324.262-.586.586-.586h1.329c.323 0 .585.262.585.586v1.755z" fill="#2873C9"/>
</svg>
