<svg xmlns="http://www.w3.org/2000/svg" viewBox="0 0 144 261">
  <path d="M13 0c-72.3 0-131 58.4-131 130.5 0 72 58.7 130.5 131 130.5s131-58.4 131-130.5C144 58.5 85.3.1 13 0zm4.7 37.6l45.5-18.1c5.2 2.3 10.2 5 15 8l.1.1c4.7 3 9.2 6.3 13.5 9.8l.3.4c2 1.6 3.8 3.3 5.6 5l.7.7c2 1.8 3.8 3.7 5.5 5.7l.5.5 4.5 5.3 1 1.3c1.6 2 3.1 4.2 4.6 6.3l-9.1 38.4L60.7 116l-43-34.3v-44zM-84 56.4a95.3 95.3 0 015.5-6.6l.5-.6c1.7-2 3.6-3.9 5.4-5.7l.7-.6c1.8-1.8 3.6-3.4 5.5-5l.5-.4c4.2-3.6 8.7-6.8 13.3-9.8l.2-.1c4.8-3 9.7-5.7 14.9-8l45.7 18v44l-43 34.2-44.7-14.8-9-38.4c1.4-2.1 3-4.2 4.5-6.2zm-5.3 140.9l-3.7-6-.2-.5-3.4-6.1v-.1a119.1 119.1 0 01-7.9-20.2l-.2-.8c-.6-2.1-1.2-4.2-1.6-6.4l-.2-.6c-1-4.9-1.8-9.8-2.3-14.7l26.7-32 44.3 14.8 12.9 51.3-21.2 28-43.2-6.7zm131.3 51.5l-6.7 1.4-1 .2-5.7.9-1.5.1c-1.8.3-3.7.4-5.5.5l-1.7.2a115 115 0 01-13.4 0h-.8l-5.7-.5H0c-4.1-.5-8.2-1.1-12.3-2l-25.8-40.2 20.8-27.7h60.8l21.2 27.8L42 248.8zm90.3-92.2l-.1.6c-.5 2.2-1 4.3-1.7 6.4l-.2.8c-.6 2.3-1.4 4.5-2.1 6.7a120.6 120.6 0 01-9 19.7l-.4.5-3.7 6-43 6.7-21.4-28 12.9-51.3 44.4-14.7 26.6 31.9c-.4 5-1.2 9.8-2.3 14.7z"/>
</svg>
