<svg fill="none" xmlns="http://www.w3.org/2000/svg" viewBox="0 0 215 232">
  <g clip-path="url(#clip0)">
    <path d="M214.17 200.17a4.32 4.32 0 11-1.05-8.6c3.04-.36 4.27-5.8 4.74-9.02 2.13-14.64-2.34-43.27-11.66-74.7-4.1-13.8-8.76-26.75-13.15-36.42C187.3 58.73 184 56 183.3 55.5a4.34 4.34 0 01-.5-8.63c4.54-.56 8.81 3.24 13.83 12.3 3.69 6.65 7.74 16.1 11.75 27.34 8.32 23.4 15.04 50.65 17.54 71.11 1.4 11.5 1.5 20.76.3 27.54-1.13 6.31-4.12 14.05-12.05 15.01z" fill="#CBD9EA"/>
    <path d="M126.07 18.84L22.83 31.42a4.33 4.33 0 00-2.89 1.63l-15.1 19.3a4.34 4.34 0 00.12 5.5l20.35 23.7a4.34 4.34 0 003.8 1.49l51.63-6.3a52.06 52.06 0 0057.9 45.34 52.06 52.06 0 0045.34-57.91 52.06 52.06 0 00-57.91-45.33z" fill="#CBD9EA"/>
    <path d="M126.07 18.84l-27.6 3.36-16.21 20.71a4.34 4.34 0 003.93 6.98c1-.12 19.07-2.68 22.89-3.85a4.31 4.31 0 005.81-.93l20.79-26.55c-3.16-.2-6.37-.12-9.61.28z" fill="#CBD9EA"/>
    <path d="M180.82 38.36l-25.8 3.14s10.53 6 18.45 23.95l10.5-1.28a13 13 0 00-3.15-25.81z" fill="#fff"/>
    <path d="M214.18 200.17c-5.46.67-10.6-2.25-15.25-8.67-3.58-4.93-7-12.11-10.17-21.33-5.42-15.76-10.1-37.71-12.85-60.22-1.9-15.63-2.7-30.18-2.25-40.97.25-5.82.85-10.48 1.8-13.85 1.45-5.07 3.92-7.85 7.36-8.27a4.34 4.34 0 011.85 8.44c-.52.88-2.18 4.6-2.43 16.73-.2 9.7.55 22.4 2.14 35.75 3.57 30.06 10.45 57.88 17.96 72.6 3.8 7.48 7.74 11.57 10.8 11.2a4.32 4.32 0 111.04 8.6zM110.96 38.14L7.72 50.72a4.33 4.33 0 00-3.78 4.82l5.24 43.02a4.33 4.33 0 004.83 3.78l51.62-6.3a52.06 52.06 0 0057.9 45.33 52.06 52.06 0 0045.34-57.9 52.06 52.06 0 00-57.91-45.33z" fill="#CBD9EA"/>
    <path d="M114.64 68.25a21.7 21.7 0 00-18.9 24.13 21.7 21.7 0 0024.14 18.89 21.7 21.7 0 0018.88-24.14 21.69 21.69 0 00-24.12-18.88z" fill="#fff"/>
  </g>
  <defs>
    <clipPath id="clip0">
      <path fill="#fff" transform="rotate(-6.95 209.63 10.46)" d="M0 0h208v208H0z"/>
    </clipPath>
  </defs>
</svg>
